<svg width="32" height="32" viewBox="0 0 32 32" xmlns="http://www.w3.org/2000/svg">
  <path fill="rgb(255,255,255)" fill-opacity="0.35" d="M16 5C12.234 5 8.692 6.39 6.021 8.697c-.14.12-.151.332-.028.47l1.264 1.418c.123.138.334.15.475.032C10.07 8.645 12.568 7.667 16 7.667c3.438 0 5.93.978 8.275 2.991.14.119.35.105.471-.034l1.269-1.456c.121-.139.108-.352-.031-.471C23.308 6.391 19.767 5 16 5z"/>
  <path fill="rgb(255,255,255)" d="M16 10.333c-2.348 0-4.475.908-6.24 2.29-.145.114-.156.317-.029.451l1.332 1.393c.127.133.351.154.505.052 1.203-.796 2.904-1.52 4.35-1.52 1.484 0 3.288.73 4.519 1.559.152.103.374.083.5-.051l1.377-1.474c.126-.134.113-.339-.032-.452-1.768-1.377-3.934-2.248-6.282-2.248zm0 5.334c-1.013 0-2.023.47-2.592.938-.141.117-.14.337-.014.472l2.378 2.554a.31.31 0 0 0 .455 0l2.379-2.554c.125-.135.129-.358-.011-.477-.568-.481-1.58-.933-2.595-.933z"/>
</svg>
