<svg width="24" height="24" viewBox="0 0 24 24" xmlns="http://www.w3.org/2000/svg">
  <path fill="rgb(255,255,255)" fill-opacity="0.35" d="M12 4C9.234 4 6.692 5.044 4.688 6.773c-.105.09-.113.249-.021.352l.948 1.064c.092.103.25.113.356.024C7.728 6.734 9.601 6 12 6c2.404 0 4.197.692 6.031 2.243.105.089.263.079.354-.025l.951-1.092c.091-.104.081-.264-.023-.354C17.311 5.044 14.767 4 12 4z"/>
  <path fill="rgb(255,255,255)" d="M12 8c-1.761 0-3.356.681-4.68 1.718-.109.085-.117.238-.022.338l.999 1.045c.095.1.263.115.378.039.903-.597 2.178-1.14 3.263-1.14 1.113 0 2.466.547 3.389 1.169.114.077.281.062.375-.039l1.033-1.105c.094-.101.085-.254-.024-.339C15.385 8.653 13.761 8 12 8zm0 4c-.76 0-1.517.352-1.944.704-.106.088-.105.253-.011.354l1.784 1.915a.233.233 0 0 0 .341 0l1.784-1.915c.094-.101.097-.269-.008-.358-.426-.361-1.185-.7-1.946-.7z"/>
</svg>
