<svg width="480" height="320" version="1.1" viewBox="0 0 480 320" xml:space="preserve" xmlns="http://www.w3.org/2000/svg" xmlns:xlink="http://www.w3.org/1999/xlink">
  <defs>
    <linearGradient id="a" x1="240" x2="240" y1="320" y2="-95" gradientUnits="userSpaceOnUse">
      <stop offset="0" stop-color="#e30613"/>
      <stop offset="0.6" stop-color="#f7941d"/>
      <stop offset="1" stop-color="#fff200"/>
    </linearGradient>

    
  </defs>
  <rect id="b" width="480" height="320" ry="24" fill="url(#a)"/>


  <g transform="translate(240 140) scale(0.675) translate(-240 -160)">
    <g fill="#ffffff" stroke="none" transform="translate(29 0) scale(0.05714) translate(0 5600) scale(1 -1)">
<path d="M6400 5227 c-3 -3 -86 -8 -185 -11 -99 -3 -193 -8 -210 -10 -16 -3
-106 -15 -200 -26 -93 -12 -189 -26 -212 -31 -24 -5 -71 -13 -105 -18 -35 -6
-139 -26 -233 -45 -93 -20 -228 -48 -300 -62 -71 -14 -202 -41 -290 -60 -88
-20 -212 -47 -275 -60 -63 -14 -257 -61 -430 -104 -553 -140 -801 -216 -1205
-372 -184 -71 -263 -113 -283 -150 -54 -98 -93 -146 -144 -180 -30 -20 -61
-45 -69 -54 -13 -16 -11 -17 36 -11 l50 7 -33 -30 c-19 -17 -59 -48 -90 -70
-82 -56 -118 -87 -110 -95 4 -4 91 32 195 80 415 192 424 194 463 155 24 -24
27 -96 6 -143 -15 -35 -27 -79 -29 -114 -1 -13 -5 -23 -9 -23 -5 0 -8 -12 -8
-28 0 -15 -11 -75 -24 -132 -75 -326 -141 -719 -123 -736 2 -3 20 2 38 9 84
36 146 57 167 57 23 0 62 32 62 51 0 6 9 9 20 6 13 -3 26 3 39 19 17 21 21 22
28 9 7 -13 14 -13 41 -3 36 14 38 19 46 128 4 41 13 136 20 210 8 74 20 182
26 240 31 299 69 505 104 564 69 118 183 174 681 334 138 44 279 90 315 102
36 11 79 25 95 29 17 5 113 32 215 61 278 78 310 86 500 134 263 67 470 112
621 136 191 30 203 22 187 -135 -5 -49 -18 -133 -29 -185 -45 -213 -66 -389
-76 -634 l-6 -169 59 7 c48 5 64 12 86 36 33 36 41 37 60 9 12 -19 17 -20 37
-10 12 7 29 10 37 7 8 -3 25 -1 39 4 24 9 25 12 25 107 0 289 55 698 116 870
16 44 41 89 64 116 59 66 108 77 356 77 223 0 370 -12 518 -41 104 -20 142
-38 190 -88 25 -26 29 -38 28 -80 0 -27 -8 -63 -16 -79 -24 -46 -119 -127
-185 -157 -61 -28 -70 -45 -25 -45 13 0 24 -4 24 -9 0 -25 -21 -60 -39 -66
-12 -4 -21 -15 -21 -26 0 -16 -17 -28 -70 -52 -41 -19 -73 -41 -79 -54 -5 -12
-26 -27 -45 -34 -37 -13 -48 -29 -21 -29 18 0 182 48 267 78 158 56 326 196
368 308 28 75 27 180 -1 237 -27 54 -100 124 -167 160 -60 33 -192 70 -326 93
-88 15 -545 32 -556 21z"/>
<path d="M2900 4983 c-291 -67 -412 -99 -667 -177 -106 -32 -377 -132 -428
-159 -274 -139 -424 -271 -506 -445 -49 -105 -63 -172 -56 -277 6 -86 28 -161
61 -209 72 -103 93 -127 143 -157 147 -90 183 -133 183 -215 0 -147 -96 -252
-345 -378 -188 -96 -391 -160 -769 -245 -44 -9 -82 -23 -84 -29 -2 -7 6 -21
19 -31 17 -14 22 -27 21 -59 -2 -37 1 -42 23 -48 16 -4 31 -18 39 -39 24 -57
50 -75 106 -75 39 0 48 -3 44 -15 -4 -9 3 -16 20 -21 15 -3 26 -14 28 -27 4
-26 33 -34 135 -36 43 -1 75 -6 79 -13 4 -7 -8 -25 -32 -44 -54 -46 -40 -58
57 -44 104 15 157 31 382 121 353 141 574 265 716 402 98 96 151 179 197 312
33 97 38 121 38 210 1 101 -18 188 -48 218 -7 7 -19 25 -27 39 -16 32 -111
114 -223 195 -125 90 -175 178 -175 308 -1 121 64 219 224 339 162 122 565
307 870 401 66 20 166 52 222 71 56 19 113 34 127 34 14 0 26 5 26 10 0 7 -40
8 -120 4 -117 -7 -120 -7 -120 14 0 17 -7 21 -37 24 -33 3 -38 7 -41 31 -2 15
-6 27 -10 26 -4 0 -36 -8 -72 -16z"/>
<path d="M5395 4863 c-298 -61 -367 -82 -376 -113 -22 -80 -79 -408 -94 -550
-9 -80 -20 -178 -25 -218 -15 -109 -13 -292 3 -292 12 1 109 22 357 79 255 58
232 48 246 111 16 66 18 176 4 185 -11 7 -163 -19 -230 -40 -25 -7 -58 -16
-74 -20 l-28 -6 6 73 c14 149 11 143 69 161 29 9 92 24 141 34 101 20 101 21
112 126 4 43 2 71 -6 86 -12 24 -18 24 -105 2 -80 -21 -160 -38 -163 -35 -2 1
-1 37 3 80 5 51 13 82 24 93 10 10 71 29 147 45 71 16 137 33 146 37 9 5 20
26 23 47 4 20 13 64 21 96 8 32 13 60 12 61 -2 1 -97 -18 -213 -42z"/>
<path d="M4865 4742 c-66 -12 -287 -66 -380 -95 -89 -27 -112 -38 -122 -58
-34 -70 -100 -476 -122 -749 l-6 -75 -21 28 c-12 15 -26 27 -30 27 -5 0 -32
23 -61 52 l-53 52 36 64 c28 49 38 80 42 128 6 81 -14 179 -43 208 -12 12 -24
26 -26 32 -2 5 -26 27 -53 49 l-49 40 -91 0 c-93 0 -135 -11 -406 -102 -98
-33 -220 -83 -220 -91 0 -3 9 -15 19 -27 63 -66 71 -78 71 -106 0 -37 18 -44
64 -25 l36 15 0 -30 c0 -16 -4 -37 -9 -47 -5 -9 -15 -55 -21 -102 -23 -160
-25 -164 -83 -185 -29 -10 -55 -21 -59 -24 -7 -6 12 -87 25 -108 4 -7 5 -23 2
-36 -8 -31 18 -55 40 -37 22 18 26 9 16 -31 -8 -33 -25 -150 -36 -256 -7 -62
1 -65 65 -33 25 13 49 18 64 14 18 -4 27 -1 36 15 6 12 19 21 28 21 10 0 22 4
28 9 5 4 31 14 57 21 26 7 52 20 56 29 5 9 11 75 14 147 3 71 9 137 12 145 3
8 31 28 63 44 31 16 79 41 105 57 26 15 54 28 60 28 22 0 116 -108 211 -242
40 -56 40 -56 65 -40 14 9 36 24 48 35 16 14 26 16 40 9 11 -6 37 -8 59 -5 29
4 45 1 56 -11 9 -9 22 -16 28 -16 12 0 11 7 -6 61 -4 12 14 21 88 41 295 83
286 80 292 102 3 11 6 33 6 47 0 15 7 45 15 69 14 40 14 43 -11 76 -28 36 -27
36 -114 14 -19 -4 -70 -18 -113 -31 -47 -14 -81 -19 -86 -13 -9 9 1 154 13
192 4 12 35 25 111 45 156 41 155 40 155 82 0 20 5 56 11 80 8 32 8 48 -1 65
-13 25 -18 25 -153 -10 -48 -13 -90 -21 -93 -17 -10 9 16 151 30 165 7 7 80
31 164 54 l151 41 6 41 c4 23 5 68 3 101 -3 54 -5 60 -23 57z m-950 -524 c15
-14 28 -38 31 -59 5 -31 0 -43 -43 -100 -38 -50 -63 -71 -113 -97 -35 -18 -67
-29 -72 -24 -7 7 23 227 38 274 11 35 120 39 159 6z"/>
<path d="M6120 3629 c-69 -16 -159 -36 -200 -45 -41 -9 -154 -36 -250 -60 -96
-24 -224 -55 -285 -69 -323 -75 -726 -192 -1110 -320 -374 -125 -385 -131
-429 -200 -20 -30 -41 -55 -47 -55 -7 0 -9 -9 -5 -22 4 -17 -4 -32 -32 -61
l-36 -37 34 6 c19 4 58 17 85 30 28 12 88 35 135 49 47 15 130 42 185 60 170
56 199 61 231 41 26 -18 26 -21 21 -83 -4 -36 -11 -79 -16 -97 -5 -17 -19
-112 -30 -211 -12 -99 -30 -241 -40 -315 -11 -74 -20 -172 -20 -218 0 -45 -2
-86 -5 -90 -8 -13 -27 -471 -20 -497 6 -25 34 -36 34 -13 0 32 23 -16 36 -76
9 -36 24 -76 34 -88 l18 -23 25 55 c27 61 23 66 48 -55 7 -33 21 -77 33 -98
18 -33 22 -36 32 -22 7 9 15 36 19 60 4 27 11 45 19 45 11 0 15 41 20 178 28
735 111 1450 187 1609 23 48 71 93 130 123 35 19 438 122 579 149 30 6 96 19
145 30 50 11 126 27 170 36 44 9 90 18 103 21 13 3 22 12 22 23 0 20 92 92
142 112 18 7 28 19 30 37 2 23 16 33 78 64 41 21 83 38 92 38 9 0 20 5 23 10
10 17 -52 10 -185 -21z"/>
<path d="M5900 3285 c-142 -25 -663 -165 -683 -184 -4 -4 26 -17 67 -30 72
-22 74 -24 80 -59 4 -20 17 -49 29 -65 l23 -27 80 18 79 19 3 -36 c7 -71 -76
-814 -94 -842 -7 -12 -79 -42 -151 -64 -67 -19 -75 -30 -43 -58 11 -9 20 -23
20 -31 0 -7 11 -21 25 -30 14 -9 25 -23 25 -31 0 -8 4 -15 10 -15 5 0 12 -16
16 -35 3 -20 12 -35 20 -35 20 0 18 -18 -16 -113 -16 -47 -30 -90 -30 -96 0
-16 -68 -158 -99 -206 -14 -22 -45 -66 -69 -97 -48 -62 -51 -95 -8 -84 13 3
56 10 95 16 40 6 80 14 89 19 9 5 50 12 90 16 56 5 80 13 102 32 17 14 31 22
31 19 1 -3 2 -11 3 -17 0 -7 9 -17 18 -23 29 -18 69 23 123 130 61 118 102
276 130 496 5 39 10 48 33 56 15 5 72 37 127 71 54 33 104 61 111 61 12 0 107
-110 159 -184 38 -54 84 -115 108 -141 26 -28 150 -213 187 -279 40 -70 47
-75 95 -67 36 6 40 9 50 49 9 40 11 42 27 26 19 -20 38 -11 38 18 0 20 1 20
26 3 19 -12 29 -14 37 -6 8 8 18 2 36 -19 29 -33 30 -33 124 -31 42 1 67 5 67
12 0 16 -159 232 -263 358 -49 58 -166 186 -260 284 -95 99 -173 182 -175 187
-2 4 13 25 33 46 20 22 45 55 56 74 11 19 30 53 44 75 46 75 59 139 60 281 l0
130 -44 90 c-96 196 -310 337 -506 333 -33 -1 -94 -7 -135 -14z m231 -315 c69
-35 82 -53 104 -140 19 -71 16 -181 -3 -188 -7 -2 -12 -10 -12 -18 0 -14 -57
-102 -91 -140 -11 -11 -19 -25 -19 -32 0 -12 -128 -116 -172 -138 l-29 -15 7
343 c4 221 11 348 18 357 17 22 127 6 197 -29z"/>
<path d="M3425 2975 c-74 -20 -420 -133 -495 -161 -36 -14 -113 -46 -172 -71
-60 -26 -111 -43 -115 -39 -4 4 0 12 10 17 30 17 19 30 -18 23 -19 -3 -35 -4
-35 0 0 3 33 22 73 42 81 41 82 42 75 50 -3 3 -23 -2 -43 -10 -21 -9 -47 -16
-59 -16 -12 0 -26 -4 -31 -9 -6 -5 -59 -26 -118 -46 -99 -33 -115 -36 -176
-30 l-68 7 -194 -97 c-355 -178 -621 -344 -879 -550 -162 -130 -214 -189 -240
-274 -11 -39 -36 -88 -57 -116 -32 -42 -37 -57 -43 -124 -4 -47 -14 -87 -25
-104 -15 -23 -16 -32 -5 -51 10 -19 9 -29 -4 -54 -12 -24 -14 -37 -6 -58 6
-15 8 -35 5 -45 -11 -34 9 -20 55 38 25 31 68 82 96 112 28 31 64 71 80 90 34
40 275 253 280 248 2 -2 -5 -55 -15 -118 -11 -63 -23 -149 -27 -190 -7 -73 -8
-75 -55 -118 -33 -29 -49 -52 -49 -68 0 -13 -10 -42 -22 -64 -23 -40 -21 -49
17 -62 6 -2 4 -11 -4 -20 -12 -15 -9 -17 29 -17 l42 0 -16 -25 c-20 -31 -20
-33 4 -37 19 -3 20 -13 24 -198 3 -107 8 -205 12 -217 4 -16 21 -27 58 -39 28
-9 64 -28 80 -41 l30 -25 17 23 17 23 19 -40 c11 -22 25 -38 33 -36 7 2 28 -5
47 -15 58 -31 57 -33 63 390 5 336 7 386 22 414 19 33 81 75 286 192 94 54
118 72 120 92 2 13 8 36 14 51 8 22 6 36 -11 71 -30 61 -27 78 24 135 24 27
42 52 39 55 -8 7 -286 -128 -324 -158 -22 -17 -119 -75 -127 -75 -15 0 28 258
67 402 6 20 25 49 43 65 37 32 313 198 492 295 351 192 1154 578 1201 578 8 0
14 5 14 10 0 6 -1 10 -2 9 -2 0 -25 -6 -53 -14z"/>
<path d="M5205 2809 c-230 -57 -225 -56 -288 -76 -31 -11 -61 -23 -66 -29 -19
-21 -74 -543 -97 -932 -14 -238 -15 -285 -3 -292 7 -5 17 -7 21 -4 7 5 38 11
298 63 171 34 154 24 145 84 -11 82 -5 203 16 277 6 23 -38 24 -126 1 -44 -12
-83 -21 -88 -21 -11 0 2 171 14 184 5 5 39 17 76 27 162 41 153 36 153 72 0
18 -5 38 -12 45 -8 8 -8 15 0 24 12 16 32 119 25 132 -6 9 -43 5 -148 -19 -38
-8 -72 -15 -74 -15 -4 0 7 121 15 161 5 25 11 28 144 54 77 15 145 34 151 41
15 18 3 64 -16 64 -20 0 -20 1 20 61 38 58 44 98 19 123 -8 9 -16 16 -17 15
-1 0 -74 -18 -162 -40z"/>
<path d="M4142 2595 c-8 -16 -20 -25 -35 -25 -13 0 -45 -11 -72 -25 -26 -14
-55 -23 -65 -20 -10 3 -21 2 -23 -2 -3 -4 -15 -87 -27 -183 -12 -96 -24 -184
-26 -196 -3 -16 -16 -24 -61 -34 -32 -7 -64 -15 -72 -18 -15 -6 -11 64 15 240
20 142 20 152 -12 144 -14 -4 -32 -2 -40 4 -18 15 -29 7 -55 -40 -21 -38 -24
-39 -60 -34 -26 4 -46 1 -67 -11 -25 -15 -30 -26 -36 -74 -4 -31 -14 -105 -21
-166 -40 -324 -65 -644 -65 -832 0 -64 2 -73 18 -73 10 0 24 -6 31 -12 10 -11
15 -10 25 5 19 25 26 21 26 -17 0 -22 7 -38 20 -47 14 -10 22 -31 27 -79 6
-50 12 -65 26 -68 10 -2 17 3 17 12 0 27 43 116 56 116 6 0 14 7 17 14 3 8 11
140 18 293 6 153 15 282 19 287 5 4 38 17 75 27 l67 18 -6 -52 c-11 -93 -27
-459 -21 -478 8 -23 18 -24 35 -4 18 22 30 18 30 -10 0 -32 20 -75 36 -75 6 0
17 14 23 30 17 51 47 37 86 -44 11 -22 27 -41 35 -41 12 0 16 29 22 175 23
534 39 742 97 1248 4 34 5 65 2 67 -14 14 -49 2 -59 -20z"/>
<path d="M3298 2384 c-108 -26 -282 -97 -355 -146 -93 -62 -115 -79 -184 -150
-66 -67 -101 -124 -137 -228 -22 -65 -26 -92 -26 -195 -1 -167 19 -235 92
-318 78 -88 107 -102 217 -102 l90 0 0 -85 c0 -75 2 -85 18 -82 11 2 17 -4 17
-17 0 -28 17 -35 50 -21 43 18 77 5 98 -36 l18 -36 19 42 c10 22 24 44 30 48
7 4 21 119 36 309 14 167 28 305 32 309 3 3 21 9 39 13 31 7 33 10 32 46 -2
80 -17 165 -29 165 -6 0 -36 -8 -66 -19 -261 -90 -369 -135 -369 -155 0 -7 13
-33 30 -57 16 -24 30 -50 30 -58 0 -10 8 -12 30 -7 34 6 34 6 19 -46 -9 -36
-12 -38 -53 -38 -31 0 -48 6 -63 23 -94 102 -77 254 43 384 65 72 95 90 239
149 88 35 135 70 135 100 0 8 -5 14 -11 14 -5 0 1 10 15 23 21 19 26 34 31
105 4 45 3 82 -1 81 -5 0 -35 -7 -66 -15z"/>
        <path d="M2422 2106 c-18 -38 -43 -72 -59 -83 -15 -10 -34 -26 -41 -35 -7 -10
        -24 -18 -37 -18 -13 0 -27 -4 -30 -10 -9 -15 -46 -158 -62 -240 -23 -127 -63
        -567 -63 -713 0 -133 1 -138 23 -147 12 -6 30 -16 40 -22 16 -11 22 -9 43 17
        29 36 39 26 49 -46 8 -55 26 -75 75 -84 69 -12 68 -18 79 350 13 398 38 628
        97 874 19 76 13 108 -21 117 -30 8 -45 32 -45 73 0 47 -14 37 -48 -33z"/>
    </g>
  </g>

<path d="m275.2 237.7c-1.76 0-2.959 1.28-2.959 3 0 1.68 1.199 2.959 2.959 2.959 1.8 0 2.961-1.279 2.961-2.959 0-1.72-1.161-3-2.961-3zm-68.48 1.559-4.92 0.5215v25.32c0 3 1.8 4.92 4.68 4.92 1.2 0 2.321-0.3598 3.041-0.7598l-0.9609-3.359c-0.2 0.04-0.5189 0.1602-0.8789 0.1602-0.64 0-0.9609-0.4802-0.9609-1.16zm10.76 0-4.92 0.5215v25.32c0 3 1.802 4.92 4.682 4.92 1.2 0 2.319-0.3598 3.039-0.7598l-0.9609-3.359c-0.2 0.04-0.5189 0.1602-0.8789 0.1602-0.64 0-0.9609-0.4802-0.9609-1.16zm-45.6 1.961c-5.76 0-10.2 4.52-10.2 14.32 0 9.92 4.239 14.48 10.2 14.48 3.2 0 5.601-1.598 7.121-3.318l-2.441-2.801c-1.24 1.04-2.438 2.039-4.318 2.039-3.12 0-5.201-2.638-5.201-10.4 0-7.96 2.161-10.44 5.121-10.44 1.6 0 2.838 0.6809 4.158 1.881l2.441-2.92c-1.92-1.8-3.961-2.84-6.881-2.84zm92.72 1.76-4.92 0.5996v4.68h-2.48v3.561h2.48v12.32c0 3.48 1.839 5.879 5.639 5.879 1.64 0 3.282-0.5186 4.602-1.559l-1.721-3.041c-0.72 0.4-1.199 0.6406-1.959 0.6406-1.12 0-1.641-0.7199-1.641-1.92v-12.32h3.52l0.4805-3.561h-4zm-75.48 4.721c-5.24 0-8.439 3.879-8.439 11.12 0 7.28 3.199 11.2 8.439 11.2s8.439-4.159 8.439-11.2c0-7.52-3.199-11.12-8.439-11.12zm41.4 0c-5.28 0-8.121 4.438-8.121 11.32 0 6.96 3.042 11 8.602 11 2.84 0 5.039-1.079 6.719-2.719l-2.039-2.801c-1.48 1.2-2.72 1.76-4.4 1.76-2.2 0-3.68-1.239-3.92-5.879h10.92c0.04-0.56 0.1191-1.361 0.1191-2.041 0-7.12-2.999-10.64-7.879-10.64zm19.72 0c-5.16 0-8.521 4.158-8.521 11.32 0 7.4 3.28 11 8.6 11 2.28 0 4.161-0.9594 5.721-2.439l-2.199-2.84c-1.16 0.84-2.041 1.32-3.281 1.32-2.16 0-3.639-1.561-3.639-7.121 0-5.6 1.359-7.439 3.639-7.439 1.24 0 2.241 0.4804 3.361 1.4l2.119-2.801c-1.68-1.64-3.479-2.398-5.799-2.398zm40.32 0c-5.24 0-8.439 3.879-8.439 11.12 0 7.28 3.199 11.2 8.439 11.2s8.441-4.159 8.441-11.2c0-7.52-3.201-11.12-8.441-11.12zm22.76 0c-2.4 0-3.878 1.238-5.238 3.318l-0.3613-2.76h-4.279v21.16h4.92v-14.8c1-1.92 2.12-3.16 3.32-3.16 1.04 0 1.639 0.7598 1.639 2.84v15.12h4.92v-15.68c0-3.68-1.88-6.039-4.92-6.039zm-40.56 0.5586v21.16h4.92v-21.16zm-42.2 2.881c2.16 0 3.041 1.76 3.041 5.76v0.2793h-6.24c0.2-4.68 1.359-6.039 3.199-6.039zm-41.44 0.2793c2.2 0 3.32 1.88 3.32 7.4s-1.12 7.439-3.32 7.439-3.32-1.879-3.32-7.439c0-5.48 1.12-7.4 3.32-7.4zm101.4 0c2.2 0 3.32 1.88 3.32 7.4s-1.12 7.439-3.32 7.439-3.318-1.879-3.318-7.439c0-5.48 1.118-7.4 3.318-7.4z" fill="#fff"/>
    </svg>
