<svg width="72" height="72" viewBox="0 0 72 72" xmlns="http://www.w3.org/2000/svg">
  <path fill="rgb(255,255,255)" fill-opacity="0.35" d="M36 11C27.702 11 20.057 14.132 14.047 19.568c-.315.27-.34.747-.063 1.057l2.844 3.191c.277.31.752.338 1.068.071C22.657 19.95 28.778 17 36 17c7.234 0 13.342 2.95 18.118 6.976.316.267.791.236 1.06-.076l2.856-3.277c.272-.312.243-.792-.07-1.06C52.953 14.387 45.297 11 36 11z"/>
  <path fill="rgb(255,255,255)" d="M36 23.25c-5.283 0-10.069 2.042-14.04 5.153-.326.256-.351.713-.065 1.014l2.997 3.135c.286.3.79.345 1.135.117 2.708-1.79 6.534-3.419 9.788-3.419 3.34 0 7.398 1.642 10.167 3.507.343.231.843.186 1.125-.115l3.099-3.316c.283-.302.254-.762-.072-1.017-3.978-3.098-8.851-5.059-14.134-5.059zm0 12c-2.279 0-4.551 1.057-5.832 2.112-.318.263-.315.758-.032 1.063l5.35 5.747a.699.699 0 0 0 1.023 0l5.353-5.747c.282-.304.29-.806-.024-1.073-1.278-1.083-3.554-2.102-5.838-2.102z"/>
</svg>
